<?xml version="1.0" encoding="UTF-8"?>
<svg version="1.1" xmlns="http://www.w3.org/2000/svg" width="625" height="672">
<path d="M0 0 C30.03 0 60.06 0 91 0 C91.33 82.17 91.66 164.34 92 249 C94.31 246.36 96.62 243.72 99 241 C104.82389459 234.6981904 111.30485552 229.34668581 118 224 C118.79148437 223.34128906 119.58296875 222.68257812 120.3984375 222.00390625 C132.27392797 212.19972226 145.38951774 204.15254761 159 197 C159.65129883 196.65727051 160.30259766 196.31454102 160.97363281 195.96142578 C180.40798788 185.90734759 201.51364813 179.79840026 223 176 C223.73750488 175.86867676 224.47500977 175.73735352 225.23486328 175.60205078 C282.21227534 166.07240152 344.98300995 182.51204261 392.15234375 214.953125 C411.05359272 228.53920794 428.64826963 243.58116688 443 262 C444.00748515 263.2554711 445.01532077 264.510661 446.0234375 265.765625 C486.85696656 317.17447923 504.87944484 385.10909725 498.05004883 450.18847656 C494.56722862 479.18120636 486.5669005 506.66142996 474 533 C473.63825684 533.76070801 473.27651367 534.52141602 472.90380859 535.30517578 C465.02066164 551.60386666 454.80025906 567.27455472 443 581 C442.10188785 582.07991761 441.20483711 583.16071844 440.30859375 584.2421875 C430.20168285 596.34500802 419.41779928 607.2524944 407 617 C406.21496094 617.65226563 405.42992187 618.30453125 404.62109375 618.9765625 C371.49634601 646.37132916 330.22599521 663.30575362 288 670 C286.24465942 670.27928345 286.24465942 670.27928345 284.45385742 670.56420898 C273.11400604 672.18049175 261.87890903 672.35807408 250.4375 672.3125 C249.46444916 672.31034485 248.49139832 672.3081897 247.48886108 672.30596924 C233.14560786 672.25498489 219.09137568 671.92408424 205 669 C203.50944092 668.69400879 203.50944092 668.69400879 201.98876953 668.38183594 C180.81306616 663.90355112 160.48378415 657.45042249 141 648 C140.24541504 647.63567871 139.49083008 647.27135742 138.71337891 646.89599609 C78.50519266 617.44482392 34.08188286 564.77414758 11.99121094 501.89160156 C8.27049794 491.03738365 5.70911812 480.25810482 3.8125 468.9375 C3.6573291 468.02411865 3.5021582 467.1107373 3.34228516 466.16967773 C-0.48372672 441.45497613 -0.28413252 416.59171326 -0.23213124 391.66033089 C-0.22338839 386.38941941 -0.22642446 381.11851192 -0.22793579 375.84759521 C-0.22897788 366.74415334 -0.22277259 357.64074042 -0.21146011 348.53730583 C-0.1951155 335.37572644 -0.189988 322.21416087 -0.18748413 309.05257244 C-0.18312099 287.6920228 -0.16984961 266.33148856 -0.15087891 244.97094727 C-0.13248419 224.23722408 -0.11834532 203.5035051 -0.10986328 182.76977539 C-0.10933783 181.48894838 -0.10881239 180.20812138 -0.10827102 178.88848143 C-0.1056607 172.46211261 -0.10313334 166.03574375 -0.10064721 159.60937488 C-0.07995777 106.40623625 -0.04311141 53.20312612 0 0 Z M142 315 C141.34515625 315.58910156 140.6903125 316.17820312 140.015625 316.78515625 C113.85739312 341.37605606 98.14862803 380.38573862 96.93359375 415.94335938 C96.27997737 439.75678281 100.03594244 463.23018704 110 485 C110.43070801 485.95567871 110.43070801 485.95567871 110.87011719 486.93066406 C118.12593688 502.86209087 127.79520358 516.50501961 140 529 C140.92224723 529.99323965 141.84280608 530.98804952 142.76171875 531.984375 C157.78699332 547.98646084 177.40533987 559.7043208 198 567 C198.96292969 567.34224609 198.96292969 567.34224609 199.9453125 567.69140625 C238.86844935 581.26022886 281.20972546 577.80341262 318.16748047 559.953125 C343.61445275 547.13698486 363.46318176 527.634276 379 504 C379.60714844 503.07960938 380.21429688 502.15921875 380.83984375 501.2109375 C401.05873433 468.65898214 406.51604945 427.00559726 398.3762207 389.91552734 C389.11586896 350.49856034 365.46316163 315.57079851 331.09130859 293.79052734 C269.22909747 255.67435918 194.15501256 266.55800985 142 315 Z " fill="#EDF0F7" transform="translate(126,0)"/>
<path d="M0 0 C2.48910041 2.18693344 4.82780417 4.44886059 7.13671875 6.82421875 C7.7709375 7.4378125 8.40515625 8.05140625 9.05859375 8.68359375 C19.97206016 19.98337756 24.17159032 35.22753601 24.44921875 50.57421875 C24.03562632 67.27301291 17.93017459 82.79896918 6.38671875 95.07421875 C-6.32753003 107.0305027 -20.81293344 111.99936364 -37.86328125 112.13671875 C-39.61705078 112.18022461 -39.61705078 112.18022461 -41.40625 112.22460938 C-58.16170415 112.34548668 -72.29004748 105.36871854 -84.1328125 93.74609375 C-98.97687125 77.86146436 -100.72171787 59.92214783 -100.08544922 39.23681641 C-99.66436048 32.76870831 -98.00577265 27.52548176 -94.86328125 21.82421875 C-94.36699219 20.87417969 -93.87070313 19.92414062 -93.359375 18.9453125 C-85.05165132 4.55193099 -71.79885707 -5.87079748 -55.92578125 -10.703125 C-36.53891158 -15.1459493 -16.02974816 -12.18085911 0 0 Z " fill="#1601FE" transform="translate(99.86328125,560.17578125)"/>
</svg>
