<svg width="24" height="24" viewBox="0 0 24 24" fill="none" xmlns="http://www.w3.org/2000/svg">
<path d="M21.4737 5.6842C20.2965 5.6842 19.3074 6.4893 19.0269 7.5789H16.1314C14.8964 7.5789 13.8424 8.4719 13.6394 9.6899L13.5356 10.3129C13.4865 10.6079 13.3343 10.8758 13.1061 11.0691C12.878 11.2624 12.5886 11.3684 12.2896 11.3684H11.289C11.0085 10.2788 10.0194 9.4737 8.8422 9.4737C7.665 9.4737 6.6759 10.2788 6.3955 11.3684H4.973C4.6925 10.2788 3.7034 9.4737 2.5262 9.4737C1.1311 9.4737 0 10.6047 0 12C0 13.3953 1.131 14.5263 2.5263 14.5263C3.7035 14.5263 4.6926 13.7212 4.9731 12.6316H6.3954C6.6758 13.7212 7.665 14.5263 8.8421 14.5263C10.0193 14.5263 11.0084 13.7212 11.2889 12.6316H12.2897C12.5887 12.6316 12.878 12.7377 13.1062 12.9309C13.3343 13.1242 13.4865 13.3922 13.5356 13.6871L13.6394 14.3101C13.8424 15.5281 14.8964 16.4211 16.1314 16.4211H16.5006C16.781 17.5106 17.7702 18.3158 18.9474 18.3158C20.3426 18.3158 21.4737 17.1848 21.4737 15.7895C21.4737 14.3942 20.3427 13.2632 18.9474 13.2632C17.7702 13.2632 16.781 14.0682 16.5006 15.1579H16.1314C15.8324 15.1579 15.543 15.0519 15.3149 14.8586C15.0867 14.6653 14.9345 14.3974 14.8854 14.1024L14.7817 13.4794C14.6867 12.9064 14.3967 12.3838 13.9607 12C14.3967 11.6162 14.6867 11.0936 14.7817 10.5206L14.8855 9.8976C14.9346 9.60266 15.0868 9.33471 15.3149 9.14143C15.5431 8.94816 15.8324 8.84209 16.1314 8.8421H19.0269C19.3074 9.9317 20.2965 10.7368 21.4737 10.7368C22.8689 10.7368 24 9.6058 24 8.2105C24 6.8152 22.869 5.6842 21.4737 5.6842ZM21.4737 6.9474C21.6396 6.94739 21.8038 6.98005 21.9571 7.04353C22.1103 7.107 22.2496 7.20004 22.3669 7.31733C22.4842 7.43462 22.5772 7.57387 22.6407 7.72712C22.7042 7.88037 22.7368 8.04463 22.7368 8.2105C22.7368 8.37639 22.7042 8.54065 22.6407 8.69392C22.5772 8.84718 22.4842 8.98644 22.3669 9.10374C22.2496 9.22105 22.1104 9.3141 21.9571 9.37757C21.8038 9.44105 21.6396 9.47372 21.4737 9.4737C21.3078 9.47373 21.1435 9.44107 20.9903 9.3776C20.837 9.31413 20.6977 9.22108 20.5804 9.10378C20.4631 8.98648 20.3701 8.84721 20.3066 8.69394C20.2431 8.54067 20.2105 8.3764 20.2105 8.2105C20.2105 8.04462 20.2432 7.88036 20.3066 7.7271C20.3701 7.57384 20.4632 7.43459 20.5805 7.31729C20.6978 7.2 20.837 7.10696 20.9903 7.0435C21.1435 6.98003 21.3078 6.94738 21.4737 6.9474ZM2.5263 10.7368C2.69219 10.7368 2.85647 10.7694 3.00974 10.8329C3.16301 10.8964 3.30227 10.9894 3.41958 11.1067C3.53688 11.224 3.62993 11.3633 3.6934 11.5166C3.75687 11.6698 3.78953 11.8341 3.7895 12C3.78953 12.1659 3.75687 12.3302 3.6934 12.4834C3.62993 12.6367 3.53688 12.776 3.41958 12.8933C3.30227 13.0106 3.16301 13.1036 3.00974 13.1671C2.85647 13.2306 2.69219 13.2632 2.5263 13.2632C2.36042 13.2632 2.19615 13.2306 2.04289 13.1671C1.88964 13.1036 1.75038 13.0105 1.63309 12.8932C1.5158 12.7759 1.42276 12.6367 1.35929 12.4834C1.29583 12.3302 1.26317 12.1659 1.2632 12C1.26317 11.8341 1.29583 11.6699 1.35929 11.5166C1.42276 11.3633 1.5158 11.2241 1.63309 11.1068C1.75038 10.9895 1.88964 10.8964 2.04289 10.8329C2.19615 10.7695 2.36042 10.7368 2.5263 10.7368ZM8.8421 10.7368C9.00799 10.7368 9.17227 10.7694 9.32554 10.8329C9.47881 10.8964 9.61807 10.9894 9.73538 11.1067C9.85268 11.224 9.94573 11.3633 10.0092 11.5166C10.0727 11.6698 10.1053 11.8341 10.1053 12C10.1053 12.1659 10.0727 12.3302 10.0092 12.4834C9.94573 12.6367 9.85268 12.776 9.73538 12.8933C9.61807 13.0106 9.47881 13.1036 9.32554 13.1671C9.17227 13.2306 9.00799 13.2632 8.8421 13.2632C8.67622 13.2632 8.51195 13.2306 8.35869 13.1671C8.20543 13.1036 8.06618 13.0105 7.94889 12.8932C7.83159 12.7759 7.73856 12.6367 7.67509 12.4834C7.61163 12.3302 7.57897 12.1659 7.579 12C7.57897 11.8341 7.61163 11.6698 7.6751 11.5166C7.73857 11.3633 7.83162 11.224 7.94892 11.1067C8.06623 10.9894 8.20549 10.8964 8.35876 10.8329C8.51203 10.7694 8.67621 10.7368 8.8421 10.7368ZM18.9475 14.5263C19.1134 14.5263 19.2776 14.559 19.4309 14.6224C19.5842 14.6859 19.7234 14.779 19.8407 14.8963C19.958 15.0136 20.051 15.1528 20.1145 15.3061C20.178 15.4594 20.2106 15.6236 20.2106 15.7895C20.2106 15.9554 20.178 16.1196 20.1145 16.2729C20.051 16.4261 19.958 16.5654 19.8407 16.6827C19.7234 16.8 19.5841 16.893 19.4309 16.9565C19.2776 17.02 19.1134 17.0526 18.9475 17.0526C18.7816 17.0526 18.6173 17.02 18.4641 16.9565C18.3108 16.893 18.1716 16.8 18.0543 16.6827C17.937 16.5654 17.8439 16.4262 17.7804 16.2729C17.717 16.1196 17.6843 15.9554 17.6843 15.7895C17.6843 15.6236 17.7169 15.4593 17.7804 15.3061C17.8439 15.1528 17.9369 15.0135 18.0542 14.8962C18.1715 14.7789 18.3108 14.6859 18.4641 14.6224C18.6173 14.5589 18.7816 14.5263 18.9475 14.5263Z" fill="#EB4971"/>
</svg>
