<svg width="24" height="24" viewBox="0 0 24 24" fill="none" xmlns="http://www.w3.org/2000/svg">
<g clip-path="url(#clip0_1033_20)">
<path fill-rule="evenodd" clip-rule="evenodd" d="M0 4.13793C0 1.85261 1.85257 0 4.13783 0H19.8616C22.1469 0 23.9994 1.85261 23.9994 4.13793V17.5113C23.9994 19.8756 21.0076 20.9016 19.5566 19.035L15.0203 13.1995V20.2759C15.0203 22.3326 13.353 24 11.2963 24H4.13783C1.85257 24 0 22.1474 0 19.8621V4.13793ZM4.13783 3.31035C3.68078 3.31035 3.31027 3.68087 3.31027 4.13793V19.8621C3.31027 20.3191 3.68078 20.6896 4.13783 20.6896H11.4204C11.6489 20.6896 11.7101 20.5044 11.7101 20.2759V10.7864C11.7101 8.42219 14.7019 7.39604 16.1529 9.26269L20.6892 15.0982V4.13793C20.6892 3.68087 20.7324 3.31035 20.2754 3.31035H4.13783Z" fill="#12FFF7"/>
<path fill-rule="evenodd" clip-rule="evenodd" d="M0 4.13793C0 1.85261 1.85257 0 4.13783 0H19.8616C22.1469 0 23.9994 1.85261 23.9994 4.13793V17.5113C23.9994 19.8756 21.0076 20.9016 19.5566 19.035L15.0203 13.1995V20.2759C15.0203 22.3326 13.353 24 11.2963 24H4.13783C1.85257 24 0 22.1474 0 19.8621V4.13793ZM4.13783 3.31035C3.68078 3.31035 3.31027 3.68087 3.31027 4.13793V19.8621C3.31027 20.3191 3.68078 20.6896 4.13783 20.6896H11.4204C11.6489 20.6896 11.7101 20.5044 11.7101 20.2759V10.7864C11.7101 8.42219 14.7019 7.39604 16.1529 9.26269L20.6892 15.0982V4.13793C20.6892 3.68087 20.7324 3.31035 20.2754 3.31035H4.13783Z" fill="url(#paint0_linear_1033_20)"/>
<path fill-rule="evenodd" clip-rule="evenodd" d="M0 4.13793C0 1.85261 1.85257 0 4.13783 0H19.8616C22.1469 0 23.9994 1.85261 23.9994 4.13793V17.5113C23.9994 19.8756 21.0076 20.9016 19.5566 19.035L15.0203 13.1995V20.2759C15.0203 22.3326 13.353 24 11.2963 24H4.13783C1.85257 24 0 22.1474 0 19.8621V4.13793ZM4.13783 3.31035C3.68078 3.31035 3.31027 3.68087 3.31027 4.13793V19.8621C3.31027 20.3191 3.68078 20.6896 4.13783 20.6896H11.4204C11.6489 20.6896 11.7101 20.5044 11.7101 20.2759V10.7864C11.7101 8.42219 14.7019 7.39604 16.1529 9.26269L20.6892 15.0982V4.13793C20.6892 3.68087 20.7324 3.31035 20.2754 3.31035H4.13783Z" fill="url(#paint1_linear_1033_20)"/>
<path d="M19.8622 0C22.1474 0 24 1.85261 24 4.13793V17.5113C24 19.8756 21.0082 20.9016 19.5572 19.035L15.0209 13.1995V20.2759C15.0209 22.3326 13.3536 24 11.2969 24C11.5254 24 11.7107 23.8147 11.7107 23.5862V10.7864C11.7107 8.42219 14.7024 7.39604 16.1534 9.26269L20.6897 15.0982V0.827587C20.6897 0.370523 20.3192 0 19.8622 0Z" fill="#B9FFB3"/>
</g>
<defs>
<linearGradient id="paint0_linear_1033_20" x1="23.9994" y1="24" x2="2.89592" y2="0.00051042" gradientUnits="userSpaceOnUse">
<stop stop-color="#B9FFB3"/>
<stop offset="1" stop-color="#B9FFB3" stop-opacity="0"/>
</linearGradient>
<linearGradient id="paint1_linear_1033_20" x1="23.9994" y1="24" x2="9.7445" y2="18.4554" gradientUnits="userSpaceOnUse">
<stop stop-color="#1A1A1A" stop-opacity="0.9"/>
<stop offset="1" stop-color="#1A1A1A" stop-opacity="0"/>
</linearGradient>
<clipPath id="clip0_1033_20">
<rect width="24" height="24" fill="white"/>
</clipPath>
</defs>
</svg>
