<svg width="24" height="24" viewBox="0 0 24 24" fill="none" xmlns="http://www.w3.org/2000/svg">
<g clip-path="url(#clip0_1034_28)">
<path d="M22.875 0H1.125C0.50368 0 0 0.50368 0 1.125V22.875C0 23.4963 0.50368 24 1.125 24H22.875C23.4963 24 24 23.4963 24 22.875V1.125C24 0.50368 23.4963 0 22.875 0Z" fill="#3178C6"/>
<path fill-rule="evenodd" clip-rule="evenodd" d="M13.9242 18.6503V21.2801C14.3502 21.4991 14.8541 21.6636 15.4359 21.7731C16.0176 21.8828 16.6308 21.9375 17.2754 21.9375C17.9035 21.9375 18.5003 21.8773 19.0656 21.7568C19.6311 21.6362 20.1266 21.4376 20.5528 21.1609C20.9788 20.8841 21.3161 20.5226 21.5648 20.076C21.8132 19.6296 21.9375 19.0776 21.9375 18.4201C21.9375 17.9435 21.8664 17.5257 21.7245 17.1669C21.5824 16.808 21.3776 16.4889 21.1099 16.2095C20.8423 15.93 20.5213 15.6794 20.1473 15.4575C19.773 15.2356 19.3511 15.026 18.8812 14.8288C18.5371 14.6864 18.2285 14.548 17.9554 14.4138C17.6823 14.2796 17.4501 14.1426 17.259 14.0029C17.0678 13.8632 16.9203 13.7153 16.8165 13.5591C16.7127 13.403 16.6608 13.2263 16.6608 13.029C16.6608 12.8482 16.7072 12.6852 16.8001 12.5401C16.893 12.3949 17.0241 12.2702 17.1934 12.1661C17.3627 12.062 17.5703 11.9812 17.8161 11.9237C18.0619 11.8662 18.335 11.8374 18.6355 11.8374C18.8541 11.8374 19.0847 11.8538 19.3279 11.8867C19.5709 11.9196 19.8154 11.9703 20.0612 12.0388C20.307 12.1072 20.5459 12.1935 20.7782 12.2976C21.0103 12.4017 21.2246 12.5222 21.4213 12.6592V10.202C21.0225 10.0486 20.5869 9.93491 20.1144 9.86094C19.6419 9.78698 19.0999 9.75 18.488 9.75C17.8653 9.75 17.2753 9.81711 16.7182 9.95134C16.161 10.0856 15.6708 10.2951 15.2474 10.58C14.8241 10.8649 14.4895 11.2279 14.2437 11.6689C13.9979 12.11 13.875 12.6373 13.875 13.2509C13.875 14.0344 14.1003 14.7028 14.551 15.2561C15.0016 15.8095 15.6858 16.2779 16.6035 16.6615C16.964 16.8094 17.2999 16.9546 17.6113 17.097C17.9226 17.2395 18.1917 17.3874 18.4184 17.5408C18.645 17.6942 18.8239 17.8613 18.9549 18.0421C19.0862 18.2229 19.1516 18.4283 19.1516 18.6585C19.1516 18.8284 19.1107 18.9859 19.0288 19.131C18.9469 19.2761 18.8226 19.4021 18.656 19.509C18.4894 19.6159 18.2818 19.6995 18.0332 19.7597C17.7847 19.8199 17.4938 19.8501 17.1606 19.8501C16.5925 19.8501 16.0299 19.7501 15.4727 19.5501C14.9156 19.3502 14.3994 19.0502 13.9242 18.6503ZM9.50674 12.1039H12.9375V9.9375H3.375V12.1039H6.78898V21.75H9.50674V12.1039Z" fill="white"/>
</g>
<defs>
<clipPath id="clip0_1034_28">
<rect width="24" height="24" fill="white"/>
</clipPath>
</defs>
</svg>
